<svg xmlns="http://www.w3.org/2000/svg" xmlns:xlink="http://www.w3.org/1999/xlink" width="500" zoomAndPan="magnify" viewBox="0 0 375 374.999991" height="500" preserveAspectRatio="xMidYMid meet" version="1.0"><defs><g/><clipPath id="51a8851e56"><rect x="0" width="323" y="0" height="323"/></clipPath></defs><g transform="matrix(1, 0, 0, 1, 26, 25)"><g clip-path="url(#51a8851e56)"><g fill="#1b46a5" fill-opacity="1"><g transform="translate(0.870197, 256.036598)"><g><path d="M 25.34375 0 L 25.34375 -207.078125 L 52.546875 -207.078125 L 126.6875 -108.859375 L 199.5625 -207.078125 L 226.78125 -207.078125 L 226.78125 0 L 203.3125 0 L 203.3125 -171.40625 L 126.6875 -72.875 L 48.796875 -171.40625 L 48.796875 0 Z M 25.34375 0 "/></g></g></g><g fill="#1b46a5" fill-opacity="1"><g transform="translate(252.977144, 256.036598)"><g><path d="M 25.96875 -57.234375 L 20.015625 -207.078125 L 49.109375 -207.078125 L 43.171875 -57.234375 Z M 19.390625 0 L 19.390625 -31.90625 L 49.734375 -31.90625 L 49.734375 0 Z M 19.390625 0 "/></g></g></g></g></g></svg>